<svg width="325" height="623" viewBox="0 0 325 623" fill="none" xmlns="http://www.w3.org/2000/svg">
<rect x="40" y="26" width="121" height="61" fill="#FEDAD9"/>
<path d="M67.2148 59.304L68.6548 60.54C70.5508 59.616 71.8828 58.296 72.8188 56.856C73.6948 55.512 74.1748 54.048 74.4868 52.644C74.5588 52.296 74.7028 51.696 74.8348 51.24L72.8908 50.976C72.9028 51.264 72.8548 51.876 72.7468 52.416C72.5548 53.412 72.2188 54.756 71.3188 56.04C70.4548 57.3 69.1588 58.5 67.2148 59.304ZM66.9748 51.024L65.4268 51.816C65.9788 52.596 66.8668 54.156 67.4668 55.44L69.0388 54.552C68.5948 53.712 67.5628 51.876 66.9748 51.024ZM77.3908 54.444V56.34C77.8468 56.304 78.6508 56.268 79.3228 56.268C80.7388 56.268 84.6868 56.268 85.7788 56.268C86.2828 56.268 86.8948 56.328 87.1828 56.34V54.444C86.8588 54.468 86.3308 54.528 85.7668 54.528C84.6988 54.528 80.7388 54.528 79.3228 54.528C78.6988 54.528 77.8348 54.48 77.3908 54.444ZM97.6972 51.876L96.7252 51.144C96.4732 51.228 96.0052 51.288 95.4772 51.288C94.9492 51.288 91.8772 51.288 91.2412 51.288C90.8932 51.288 90.1492 51.252 89.8252 51.204V52.92C90.0892 52.896 90.7492 52.836 91.2412 52.836C91.7572 52.836 94.8172 52.836 95.3212 52.836C95.0452 53.688 94.3132 54.876 93.5212 55.776C92.3932 57.024 90.5452 58.488 88.6012 59.208L89.8492 60.504C91.7092 59.628 93.5212 58.14 94.8652 56.592C95.8972 55.392 96.7852 53.76 97.2772 52.62C97.3852 52.368 97.6012 52.008 97.6972 51.876ZM95.0212 55.596L93.8932 56.712C95.1772 57.876 96.4852 59.304 97.3732 60.54L98.7412 59.352C97.9612 58.392 96.2572 56.604 95.0212 55.596ZM101.573 51.48V53.16C101.909 53.136 102.557 53.112 103.061 53.112H108.461V59.04C108.461 59.484 108.449 59.916 108.437 60.276H110.177C110.153 59.904 110.117 59.28 110.117 58.86V52.644C110.117 52.284 110.141 51.816 110.153 51.528C109.949 51.54 109.457 51.564 109.109 51.564H103.061C102.641 51.564 102.029 51.528 101.573 51.48ZM101.429 57.996V59.724C101.825 59.676 102.497 59.652 102.965 59.652H109.409V58.068H102.917C102.377 58.068 101.837 58.032 101.429 57.996ZM112.793 54.444V56.34C113.249 56.304 114.053 56.268 114.725 56.268C116.141 56.268 120.089 56.268 121.181 56.268C121.685 56.268 122.297 56.328 122.585 56.34V54.444C122.261 54.468 121.733 54.528 121.169 54.528C120.101 54.528 116.141 54.528 114.725 54.528C114.101 54.528 113.237 54.48 112.793 54.444ZM131.873 51.072L130.865 51.504C131.309 52.116 131.573 52.596 131.933 53.352L132.965 52.896C132.701 52.344 132.209 51.576 131.873 51.072ZM133.445 50.424L132.449 50.892C132.893 51.48 133.181 51.924 133.565 52.692L134.573 52.188C134.309 51.648 133.805 50.904 133.445 50.424ZM127.097 59.028C127.097 59.508 127.049 60.228 126.977 60.696H128.849C128.801 60.216 128.741 59.376 128.741 59.028C128.741 58.14 128.741 53.46 128.741 52.128C128.741 51.636 128.801 51.108 128.849 50.688H126.965C127.049 51.108 127.097 51.696 127.097 52.128C127.097 53.148 127.097 58.116 127.097 59.028ZM128.381 53.784V55.512C129.689 55.944 131.717 56.712 133.073 57.42L133.757 55.764C132.569 55.176 129.989 54.228 128.381 53.784Z" fill="black"/>
<rect x="40" y="230" width="121" height="61" fill="#FEDAD9"/>
<path d="M81.7468 255.888L80.7988 255C80.5708 255.06 79.9108 255.108 79.5748 255.108C78.9508 255.108 73.8628 255.108 73.1068 255.108C72.6148 255.108 72.1108 255.048 71.6428 254.976V256.656C72.2068 256.596 72.6148 256.572 73.1068 256.572C73.8628 256.572 78.6388 256.572 79.3708 256.572C79.0588 257.16 78.1228 258.216 77.1508 258.804L78.3988 259.8C79.5868 258.96 80.7268 257.436 81.2908 256.5C81.3988 256.332 81.6268 256.044 81.7468 255.888ZM76.8628 257.496H75.1228C75.1828 257.892 75.1948 258.204 75.1948 258.588C75.1948 260.556 74.9068 261.816 73.3948 262.872C72.9508 263.208 72.5188 263.412 72.1228 263.544L73.5268 264.684C76.7908 262.92 76.8628 260.472 76.8628 257.496ZM85.4485 262.404C85.4485 263.832 85.8445 264.48 88.5685 264.48C89.8645 264.48 91.3045 264.372 92.2885 264.228L92.3485 262.596C91.1605 262.836 89.8165 262.992 88.5565 262.992C87.2485 262.992 87.0325 262.74 87.0325 261.984C87.0325 260.652 87.0325 257.352 87.0325 255.912C87.0325 255.504 87.0805 254.892 87.1405 254.532H85.3525C85.4125 254.892 85.4485 255.504 85.4485 255.912C85.4485 257.364 85.4485 261.42 85.4485 262.404ZM92.9965 257.136L91.8445 256.236C91.6285 256.356 91.3285 256.44 90.9925 256.524C89.9005 256.788 84.2605 257.892 82.6285 258.084L82.9165 259.656C84.4405 259.32 89.9845 258.216 90.7165 258.072C90.3805 258.696 89.6005 259.8 88.8085 260.508L90.1285 261.288C90.9925 260.436 92.0845 258.792 92.6125 257.784C92.7205 257.58 92.8885 257.304 92.9965 257.136ZM96.9565 254.88L95.8165 256.092C96.6925 256.692 98.2045 258 98.8285 258.672L100.052 257.424C99.3445 256.692 97.7845 255.444 96.9565 254.88ZM95.4445 262.872L96.4645 264.456C98.1445 264.168 99.6925 263.508 100.916 262.776C102.848 261.612 104.444 259.956 105.344 258.324L104.42 256.644C103.652 258.264 102.092 260.088 100.04 261.312C98.8765 261.996 97.3285 262.608 95.4445 262.872ZM114.809 253.896L113.813 254.304C114.125 254.784 114.485 255.396 114.725 255.9L115.721 255.48C115.505 255.036 115.109 254.352 114.809 253.896ZM116.477 253.584L115.481 253.992C115.817 254.436 116.189 255.108 116.441 255.6L117.437 255.18C117.209 254.748 116.789 254.028 116.477 253.584ZM116.045 256.152L114.857 255.396C114.545 255.48 114.161 255.492 113.921 255.492C113.249 255.492 109.265 255.492 108.365 255.492C107.969 255.492 107.297 255.432 106.937 255.384V257.088C107.249 257.064 107.825 257.028 108.365 257.028C109.265 257.028 113.237 257.028 113.957 257.028C113.801 258.06 113.345 259.428 112.541 260.424C111.581 261.636 110.225 262.68 107.849 263.232L109.157 264.672C111.293 263.988 112.889 262.8 113.981 261.36C114.977 260.028 115.505 258.156 115.781 256.98C115.841 256.728 115.937 256.38 116.045 256.152ZM127.325 254.688H125.513C125.561 255.024 125.597 255.408 125.597 255.9C125.597 256.416 125.597 257.568 125.597 258.168C125.597 260.04 125.429 260.94 124.613 261.84C123.881 262.62 122.921 263.076 121.721 263.352L122.981 264.684C123.857 264.396 125.093 263.82 125.885 262.944C126.785 261.96 127.289 260.856 127.289 258.264C127.289 257.676 127.289 256.512 127.289 255.9C127.289 255.408 127.301 255.024 127.325 254.688ZM121.769 254.796H120.029C120.065 255.072 120.077 255.492 120.077 255.708C120.077 256.236 120.077 259.068 120.077 259.752C120.077 260.124 120.041 260.592 120.017 260.808H121.769C121.745 260.532 121.721 260.064 121.721 259.764C121.721 259.092 121.721 256.236 121.721 255.708C121.721 255.336 121.745 255.072 121.769 254.796Z" fill="black"/>
<rect x="40" y="128" width="121" height="61" fill="#FEDAD9"/>
<path d="M77.044 153.9V159.984H78.496V155.316H85.456V159.924H86.968V153.9H77.044ZM77.8 157.896V159.312H86.296V157.896H77.8ZM81.208 151.812V163.08H82.732V151.812H81.208ZM92.344 159.132V160.164H95.632V159.132H92.344ZM92.26 157.356V158.412H94.96V160.908H92.26V161.964H96.304V157.356H92.26ZM91.672 157.356V162.576H92.968V157.356H91.672ZM89.656 153.936V154.908H92.668V153.936H89.656ZM95.224 153.936V154.908H98.26V153.936H95.224ZM97.672 152.268V161.364C97.672 161.568 97.6 161.64 97.384 161.64C97.168 161.64 96.436 161.652 95.812 161.616C96.004 162 96.22 162.672 96.28 163.08C97.312 163.08 98.008 163.056 98.488 162.816C98.968 162.576 99.124 162.156 99.124 161.376V152.268H97.672ZM89.776 152.268V153.312H92.224V155.592H89.776V156.624H93.568V152.268H89.776ZM98.44 152.268H94.384V156.66H98.44V155.628H95.752V153.312H98.44V152.268ZM88.948 152.268V163.08H90.376V152.268H88.948ZM101.104 152.604V153.828H110.932V152.604H101.104ZM101.656 154.44V155.592H110.464V154.44H101.656ZM100.66 156.252V157.476H111.316V156.252H100.66ZM105.232 151.812V157.284H106.696V151.812H105.232ZM105.244 156.708C104.188 157.8 102.1 158.832 100.204 159.324C100.504 159.624 100.912 160.152 101.128 160.5C103.084 159.888 105.208 158.676 106.492 157.296L105.244 156.708ZM107.32 156.936L106.012 157.188C106.792 160.128 108.124 162.12 110.812 163.056C111.016 162.66 111.424 162.06 111.748 161.772C109.276 161.064 107.944 159.324 107.32 156.936ZM110.092 157.656C109.444 158.268 108.364 159.036 107.56 159.504L108.472 160.272C109.3 159.864 110.38 159.204 111.28 158.556L110.092 157.656ZM101.476 161.724L101.908 163.068C103.396 162.744 105.436 162.3 107.32 161.868L107.188 160.572C105.136 161.016 102.928 161.472 101.476 161.724ZM103.12 159.288V161.928H104.56V158.472L104.068 158.34L103.12 159.288ZM112.492 152.436V153.768H116.716V152.436H112.492ZM112.6 155.868V157.188H116.584V155.868H112.6ZM112.204 160.032L112.564 161.4C113.812 161.028 115.444 160.56 116.956 160.104L116.764 158.844C115.108 159.3 113.368 159.768 112.204 160.032ZM118.516 155.268H121.672V156.012H118.516V155.268ZM118.516 157.116H121.672V157.848H118.516V157.116ZM118.516 153.444H121.672V154.176H118.516V153.444ZM117.184 152.268V159.036H123.076V152.268H117.184ZM120.208 158.508V161.4C120.208 162.612 120.448 163.02 121.564 163.02C121.768 163.02 122.26 163.02 122.476 163.02C123.352 163.02 123.688 162.564 123.808 160.92C123.448 160.836 122.872 160.608 122.596 160.392C122.572 161.592 122.524 161.784 122.32 161.784C122.212 161.784 121.9 161.784 121.816 161.784C121.624 161.784 121.588 161.748 121.588 161.388V158.508H120.208ZM118.084 158.856C117.928 160.38 117.616 161.4 115.336 161.976C115.624 162.252 115.984 162.804 116.128 163.164C118.792 162.36 119.308 160.908 119.488 158.856H118.084ZM113.944 152.964V160.224L115.336 160.02V152.964H113.944Z" fill="black"/>
<rect x="40" y="333" width="121" height="61" fill="#FEDAD9"/>
<path d="M72.208 348.388H70.492C70.552 348.712 70.576 349.096 70.612 349.612C70.708 351.592 70.732 354.88 70.732 356.536C70.732 356.872 70.624 357.028 70.324 357.028C69.916 357.028 69.268 356.98 68.716 356.896L68.86 358.456C69.544 358.504 70.204 358.528 70.936 358.528C71.848 358.528 72.292 358.084 72.28 357.316C72.256 354.892 72.172 351.592 72.136 349.612C72.124 349.228 72.148 348.772 72.208 348.388ZM65.356 350.392V351.988C65.776 351.964 66.28 351.94 66.724 351.94C67.384 351.94 73.252 351.94 73.72 351.94C74.044 351.94 74.512 351.952 74.884 351.964V350.38C74.596 350.416 74.032 350.476 73.648 350.476C73.06 350.476 67.516 350.476 66.676 350.476C66.268 350.476 65.692 350.428 65.356 350.392ZM64.708 356.104L65.812 357.352C67.876 356.26 70 354.376 70.972 352.924L70.96 351.64H70.18C69.316 353.056 67.216 354.904 64.708 356.104ZM85.108 347.896L84.112 348.304C84.424 348.784 84.784 349.396 85.024 349.9L86.02 349.48C85.804 349.036 85.408 348.352 85.108 347.896ZM86.776 347.584L85.78 347.992C86.116 348.436 86.488 349.108 86.74 349.6L87.736 349.18C87.508 348.748 87.088 348.028 86.776 347.584ZM86.344 350.152L85.156 349.396C84.844 349.48 84.46 349.492 84.22 349.492C83.548 349.492 79.564 349.492 78.664 349.492C78.268 349.492 77.596 349.432 77.236 349.384V351.088C77.548 351.064 78.124 351.028 78.664 351.028C79.564 351.028 83.536 351.028 84.256 351.028C84.1 352.06 83.644 353.428 82.84 354.424C81.88 355.636 80.524 356.68 78.148 357.232L79.456 358.672C81.592 357.988 83.188 356.8 84.28 355.36C85.276 354.028 85.804 352.156 86.08 350.98C86.14 350.728 86.236 350.38 86.344 350.152ZM96.748 348.796L95.74 349.204C96.184 349.828 96.448 350.344 96.808 351.1L97.84 350.644C97.576 350.092 97.084 349.3 96.748 348.796ZM98.404 348.208L97.384 348.64C97.828 349.24 98.116 349.708 98.5 350.464L99.532 350.008C99.244 349.48 98.776 348.688 98.404 348.208ZM91.54 348.556L90.664 349.876C91.456 350.32 92.716 351.136 93.376 351.604L94.276 350.272C93.652 349.84 92.332 348.988 91.54 348.556ZM89.32 357.076L90.22 358.66C91.276 358.468 93.004 357.868 94.216 357.172C96.184 356.044 97.876 354.52 98.992 352.864L98.068 351.232C97.108 352.948 95.44 354.592 93.4 355.732C92.092 356.452 90.652 356.848 89.32 357.076ZM89.692 351.292L88.816 352.624C89.632 353.044 90.868 353.86 91.552 354.328L92.428 352.984C91.816 352.552 90.496 351.724 89.692 351.292ZM102.352 351.508V353.008C102.616 352.984 103.048 352.972 103.312 352.972H108.796C109.072 352.972 109.432 352.984 109.732 353.008V351.508C109.444 351.544 109.096 351.568 108.796 351.568H103.312C103.048 351.568 102.616 351.544 102.352 351.508ZM105.172 357.64H106.744V352.324H105.172V357.64ZM101.752 356.752V358.324C102.064 358.288 102.436 358.276 102.736 358.276H109.36C109.576 358.276 110.02 358.288 110.272 358.324V356.752C110.02 356.788 109.696 356.824 109.36 356.824H102.736C102.424 356.824 102.052 356.8 101.752 356.752ZM122.788 350.548L121.552 349.78C121.288 349.876 120.88 349.924 120.508 349.924C120.136 349.924 117.616 349.924 117.088 349.924L116.536 351.292H120.58C120.388 352.18 119.692 353.62 118.876 354.556C117.82 355.744 116.488 356.788 114.04 357.532L115.456 358.792C117.712 357.904 119.152 356.8 120.292 355.408C121.384 354.076 122.068 352.48 122.392 351.4C122.488 351.1 122.656 350.776 122.788 350.548ZM118.876 348.64L117.112 348.064C117.004 348.484 116.752 349.036 116.572 349.324C115.984 350.356 114.928 351.904 112.828 353.188L114.172 354.184C115.9 353.008 117.328 351.316 118.144 349.864C118.276 349.612 118.588 349.06 118.876 348.64ZM127.756 356.86C127.756 357.328 127.72 358.06 127.636 358.528H129.52C129.46 358.036 129.412 357.196 129.412 356.86C129.412 355.972 129.4 351.28 129.4 349.96C129.4 349.456 129.46 348.94 129.508 348.508H127.636C127.72 348.94 127.756 349.528 127.756 349.96C127.756 350.968 127.756 355.936 127.756 356.86ZM129.052 351.616V353.344C130.36 353.776 132.376 354.544 133.744 355.252L134.416 353.584C133.24 353.008 130.648 352.06 129.052 351.616ZM86.668 368.02L85.48 367.264C85.156 367.336 84.772 367.348 84.544 367.348C83.872 367.348 79.888 367.348 78.988 367.348C78.592 367.348 77.92 367.3 77.56 367.252V368.944C77.872 368.932 78.436 368.896 78.988 368.896C79.888 368.896 83.848 368.896 84.58 368.896C84.412 369.928 83.968 371.284 83.164 372.292C82.192 373.504 80.848 374.548 78.46 375.1L79.768 376.54C81.916 375.856 83.512 374.656 84.592 373.228C85.6 371.884 86.128 370.024 86.404 368.848C86.464 368.596 86.548 368.248 86.668 368.02ZM98.656 370.024L97.78 369.22C97.588 369.268 97.06 369.304 96.796 369.304C96.292 369.304 91.84 369.304 91.24 369.304C90.832 369.304 90.364 369.256 89.98 369.208V370.744C90.424 370.708 90.832 370.684 91.24 370.684C91.84 370.684 95.848 370.684 96.436 370.684C96.148 371.176 95.404 372.028 94.708 372.508L95.908 373.336C96.772 372.688 97.888 371.164 98.308 370.492C98.38 370.372 98.548 370.144 98.656 370.024ZM94.54 371.272H92.884C92.932 371.536 92.98 371.836 92.98 372.136C92.98 373.648 92.728 374.704 91.372 375.64C91.012 375.892 90.7 376.024 90.388 376.156L91.672 377.164C94.48 375.628 94.48 373.528 94.54 371.272ZM100.744 371.344L101.488 372.856C103.384 372.292 105.328 371.392 106.684 370.588C108.1 369.736 109.564 368.608 110.656 367.504L109.36 366.28C108.58 367.228 107.212 368.428 105.988 369.184C104.644 370.012 102.892 370.792 100.744 371.344ZM105.736 369.964V374.968C105.736 375.496 105.688 376.252 105.64 376.54H107.548C107.464 376.24 107.44 375.496 107.44 374.968V369.556L105.736 369.964ZM118.024 375.736L119.032 376.564C119.152 376.48 119.296 376.348 119.548 376.216C120.904 375.532 122.62 374.236 123.616 372.94L122.704 371.608C121.888 372.772 120.712 373.72 119.728 374.14C119.728 373.408 119.728 368.836 119.728 367.876C119.728 367.336 119.812 366.856 119.812 366.832H118.036C118.036 366.856 118.12 367.324 118.12 367.864C118.12 368.836 118.12 374.224 118.12 374.86C118.12 375.184 118.084 375.508 118.024 375.736ZM112.468 375.568L113.932 376.54C114.964 375.628 115.708 374.44 116.08 373.096C116.392 371.884 116.428 369.352 116.428 367.924C116.428 367.432 116.512 366.892 116.512 366.844H114.748C114.82 367.144 114.868 367.456 114.868 367.948C114.868 369.388 114.856 371.668 114.508 372.688C114.184 373.72 113.536 374.824 112.468 375.568Z" fill="black"/>
<rect x="178" y="333" width="121" height="61" fill="#FEDAD9"/>
<path d="M199.108 356.896V363.772H200.608V356.896H199.108ZM203.368 356.896V363.772H204.88V356.896H203.368ZM196.528 362.824V364.228H207.508V362.824H196.528ZM196.936 359.128V360.508H207.136V359.128H196.936ZM202.828 365.356C203.896 366.184 205.324 367.36 205.996 368.08L207.424 367.24C206.656 366.508 205.168 365.392 204.148 364.636L202.828 365.356ZM199.636 364.684C199.012 365.488 197.728 366.484 196.6 367.072C196.936 367.324 197.476 367.78 197.776 368.08C198.94 367.408 200.26 366.316 201.16 365.272L199.636 364.684ZM208.648 358.264V359.608H219.352V358.264H208.648ZM211.888 362.584V363.784H217.108V362.584H211.888ZM210.82 360.556V368.068H212.248V361.816H216.892V360.556H210.82ZM216.604 360.556V366.496C216.604 366.664 216.532 366.724 216.34 366.724C216.136 366.724 215.428 366.736 214.804 366.7C214.996 367.072 215.188 367.684 215.248 368.08C216.22 368.08 216.904 368.068 217.384 367.852C217.876 367.624 218.008 367.228 218.008 366.52V360.556H216.604ZM212.368 356.8C211.768 359.14 210.424 361.72 208.288 363.124C208.576 363.4 209.032 363.916 209.236 364.24C211.576 362.608 213.016 359.848 213.856 357.136L212.368 356.8ZM211.888 364.564V365.764H217.108V364.564H211.888ZM222.676 357.796V359.356C223.024 359.32 223.528 359.308 223.924 359.308C224.632 359.308 227.848 359.308 228.508 359.308C228.952 359.308 229.516 359.332 229.828 359.356V357.796C229.504 357.844 228.916 357.868 228.532 357.868C227.836 357.868 224.68 357.868 223.924 357.868C223.516 357.868 223 357.844 222.676 357.796ZM230.848 361.288L229.78 360.616C229.612 360.7 229.288 360.748 228.892 360.748C228.076 360.748 223.78 360.748 222.964 360.748C222.58 360.748 222.076 360.712 221.56 360.664V362.224C222.064 362.188 222.664 362.176 222.964 362.176C224.032 362.176 228.148 362.176 228.748 362.176C228.544 362.836 228.16 363.592 227.524 364.24C226.6 365.188 225.172 365.968 223.36 366.352L224.56 367.708C226.096 367.264 227.632 366.46 228.844 365.104C229.732 364.12 230.248 362.944 230.62 361.78C230.656 361.66 230.764 361.444 230.848 361.288ZM232.744 362.344L233.488 363.856C235.384 363.292 237.328 362.392 238.684 361.588C240.1 360.736 241.564 359.608 242.656 358.504L241.36 357.28C240.58 358.228 239.212 359.428 237.988 360.184C236.644 361.012 234.892 361.792 232.744 362.344ZM237.736 360.964V365.968C237.736 366.496 237.688 367.252 237.64 367.54H239.548C239.464 367.24 239.44 366.496 239.44 365.968V360.556L237.736 360.964ZM253.108 356.896L252.112 357.304C252.424 357.784 252.784 358.396 253.024 358.9L254.02 358.48C253.804 358.036 253.408 357.352 253.108 356.896ZM254.776 356.584L253.78 356.992C254.116 357.436 254.488 358.108 254.74 358.6L255.736 358.18C255.508 357.748 255.088 357.028 254.776 356.584ZM254.344 359.152L253.156 358.396C252.844 358.48 252.46 358.492 252.22 358.492C251.548 358.492 247.564 358.492 246.664 358.492C246.268 358.492 245.596 358.432 245.236 358.384V360.088C245.548 360.064 246.124 360.028 246.664 360.028C247.564 360.028 251.536 360.028 252.256 360.028C252.1 361.06 251.644 362.428 250.84 363.424C249.88 364.636 248.524 365.68 246.148 366.232L247.456 367.672C249.592 366.988 251.188 365.8 252.28 364.36C253.276 363.028 253.804 361.156 254.08 359.98C254.14 359.728 254.236 359.38 254.344 359.152ZM258.676 357.796V359.356C259.024 359.32 259.528 359.308 259.924 359.308C260.632 359.308 263.848 359.308 264.508 359.308C264.952 359.308 265.516 359.332 265.828 359.356V357.796C265.504 357.844 264.916 357.868 264.532 357.868C263.836 357.868 260.68 357.868 259.924 357.868C259.516 357.868 259 357.844 258.676 357.796ZM266.848 361.288L265.78 360.616C265.612 360.7 265.288 360.748 264.892 360.748C264.076 360.748 259.78 360.748 258.964 360.748C258.58 360.748 258.076 360.712 257.56 360.664V362.224C258.064 362.188 258.664 362.176 258.964 362.176C260.032 362.176 264.148 362.176 264.748 362.176C264.544 362.836 264.16 363.592 263.524 364.24C262.6 365.188 261.172 365.968 259.36 366.352L260.56 367.708C262.096 367.264 263.632 366.46 264.844 365.104C265.732 364.12 266.248 362.944 266.62 361.78C266.656 361.66 266.764 361.444 266.848 361.288ZM277.624 357.688H275.812C275.86 358.024 275.896 358.408 275.896 358.9C275.896 359.416 275.896 360.568 275.896 361.168C275.896 363.04 275.728 363.94 274.912 364.84C274.18 365.62 273.22 366.076 272.02 366.352L273.28 367.684C274.156 367.396 275.392 366.82 276.184 365.944C277.084 364.96 277.588 363.856 277.588 361.264C277.588 360.676 277.588 359.512 277.588 358.9C277.588 358.408 277.6 358.024 277.624 357.688ZM272.068 357.796H270.328C270.364 358.072 270.376 358.492 270.376 358.708C270.376 359.236 270.376 362.068 270.376 362.752C270.376 363.124 270.34 363.592 270.316 363.808H272.068C272.044 363.532 272.02 363.064 272.02 362.764C272.02 362.092 272.02 359.236 272.02 358.708C272.02 358.336 272.044 358.072 272.068 357.796Z" fill="black"/>
<rect x="40" y="435" width="121" height="61" fill="#FEDAD9"/>
<path d="M57.244 459.824V461.744H58.72V459.824H57.244ZM52.852 460.868V463.448H54.28V462.128H61.648V463.448H63.136V460.868H52.852ZM53.92 463.076V464.24H62.164V463.076H53.92ZM52.756 466.88V468.128H63.304V466.88H52.756ZM54.112 464.96V466.124H61.924V464.96H54.112ZM58.708 467.132L57.412 467.396C58.336 469.532 59.872 470.672 62.62 471.116C62.8 470.732 63.172 470.156 63.472 469.856C60.976 469.592 59.416 468.716 58.708 467.132ZM57.208 462.392V465.716C57.208 467.324 56.68 468.968 52.528 469.916C52.84 470.216 53.26 470.768 53.416 471.08C57.784 469.904 58.66 467.84 58.66 465.728V462.392H57.208ZM69.352 460.496V461.864H75.22V460.496H69.352ZM72.4 464.228V469.376C72.4 469.556 72.328 469.604 72.1 469.616C71.884 469.616 71.092 469.616 70.408 469.58C70.6 470 70.792 470.624 70.84 471.044C71.92 471.044 72.676 471.032 73.192 470.816C73.72 470.588 73.876 470.18 73.876 469.412V464.228H72.4ZM68.836 463.82V465.188H75.532V463.82H68.836ZM66.148 465.236V471.092H67.588V464.048L67.408 463.976L66.148 465.236ZM67.504 462.428C66.712 463.784 65.404 465.176 64.18 466.04C64.468 466.328 64.96 466.976 65.164 467.276C66.448 466.22 67.924 464.54 68.872 462.944L67.504 462.428ZM67.048 459.812C66.46 460.652 65.308 461.732 64.312 462.38C64.552 462.668 64.924 463.232 65.116 463.556C66.256 462.764 67.552 461.516 68.428 460.376L67.048 459.812ZM84.544 461.012V469.232C84.544 469.484 84.448 469.568 84.16 469.58C83.872 469.58 82.828 469.592 81.964 469.532C82.192 469.928 82.48 470.636 82.564 471.068C83.8 471.068 84.676 471.044 85.276 470.792C85.852 470.564 86.056 470.132 86.056 469.268V461.012H84.544ZM77.68 463.412V469.004H79.084V463.412H77.68ZM78.28 463.412V464.78H81.376V466.712H78.28V468.08H82.804V463.412H78.28ZM76.576 460.616V462.068H87.448V460.616H76.576ZM90.172 459.752C89.92 460.712 89.428 461.984 88.996 462.8L90.244 463.124C90.7 462.356 91.24 461.18 91.672 460.076L90.172 459.752ZM88.36 462.212L88.468 463.58C89.836 463.496 91.684 463.388 93.448 463.256L93.46 462.008C91.6 462.092 89.656 462.176 88.36 462.212ZM89.068 464.144V471.068H90.4V465.332H92.884V464.144H89.068ZM92.2 464.144V469.592C92.2 469.748 92.152 469.784 92.008 469.784C91.852 469.796 91.372 469.796 90.952 469.772C91.132 470.12 91.336 470.672 91.408 471.056C92.14 471.056 92.68 471.032 93.1 470.816C93.508 470.6 93.628 470.24 93.628 469.628V464.144H92.2ZM89.68 465.956V467.024H93.004V465.956H89.68ZM89.68 467.72V468.788H93.004V467.72H89.68ZM94.564 459.86V463.484C94.564 464.816 94.912 465.224 96.328 465.224C96.604 465.224 97.684 465.224 97.984 465.224C99.1 465.224 99.484 464.792 99.64 463.232C99.244 463.148 98.656 462.932 98.356 462.704C98.308 463.76 98.236 463.94 97.84 463.94C97.588 463.94 96.724 463.94 96.532 463.94C96.076 463.94 96.004 463.88 96.004 463.46V459.86H94.564ZM98.164 460.568C97.372 461.024 96.136 461.564 95.02 461.912C95.176 462.188 95.368 462.62 95.428 462.908C96.616 462.584 98.008 462.128 99.076 461.612L98.164 460.568ZM94.564 465.464V469.256C94.564 470.588 94.924 470.996 96.34 470.996C96.628 470.996 97.744 470.996 98.044 470.996C99.196 470.996 99.58 470.516 99.736 468.824C99.34 468.74 98.764 468.512 98.464 468.296C98.404 469.52 98.332 469.736 97.912 469.736C97.648 469.736 96.748 469.736 96.544 469.736C96.076 469.736 95.992 469.688 95.992 469.244V465.464H94.564ZM98.26 465.968C97.444 466.496 96.16 467.084 94.996 467.456C95.14 467.732 95.344 468.188 95.416 468.464C96.652 468.116 98.104 467.612 99.196 467.024L98.26 465.968ZM91.804 461.072C92.38 461.972 92.956 463.172 93.16 463.94L94.468 463.412C94.24 462.62 93.616 461.48 93.028 460.616L91.804 461.072ZM110.668 462.02L109.48 461.264C109.156 461.336 108.772 461.348 108.544 461.348C107.872 461.348 103.888 461.348 102.988 461.348C102.592 461.348 101.92 461.3 101.56 461.252V462.944C101.872 462.932 102.436 462.896 102.988 462.896C103.888 462.896 107.848 462.896 108.58 462.896C108.412 463.928 107.968 465.284 107.164 466.292C106.192 467.504 104.848 468.548 102.46 469.1L103.768 470.54C105.916 469.856 107.512 468.656 108.592 467.228C109.6 465.884 110.128 464.024 110.404 462.848C110.464 462.596 110.548 462.248 110.668 462.02ZM122.656 464.024L121.78 463.22C121.588 463.268 121.06 463.304 120.796 463.304C120.292 463.304 115.84 463.304 115.24 463.304C114.832 463.304 114.364 463.256 113.98 463.208V464.744C114.424 464.708 114.832 464.684 115.24 464.684C115.84 464.684 119.848 464.684 120.436 464.684C120.148 465.176 119.404 466.028 118.708 466.508L119.908 467.336C120.772 466.688 121.888 465.164 122.308 464.492C122.38 464.372 122.548 464.144 122.656 464.024ZM118.54 465.272H116.884C116.932 465.536 116.98 465.836 116.98 466.136C116.98 467.648 116.728 468.704 115.372 469.64C115.012 469.892 114.7 470.024 114.388 470.156L115.672 471.164C118.48 469.628 118.48 467.528 118.54 465.272ZM124.744 465.344L125.488 466.856C127.384 466.292 129.328 465.392 130.684 464.588C132.1 463.736 133.564 462.608 134.656 461.504L133.36 460.28C132.58 461.228 131.212 462.428 129.988 463.184C128.644 464.012 126.892 464.792 124.744 465.344ZM129.736 463.964V468.968C129.736 469.496 129.688 470.252 129.64 470.54H131.548C131.464 470.24 131.44 469.496 131.44 468.968V463.556L129.736 463.964ZM142.024 469.736L143.032 470.564C143.152 470.48 143.296 470.348 143.548 470.216C144.904 469.532 146.62 468.236 147.616 466.94L146.704 465.608C145.888 466.772 144.712 467.72 143.728 468.14C143.728 467.408 143.728 462.836 143.728 461.876C143.728 461.336 143.812 460.856 143.812 460.832H142.036C142.036 460.856 142.12 461.324 142.12 461.864C142.12 462.836 142.12 468.224 142.12 468.86C142.12 469.184 142.084 469.508 142.024 469.736ZM136.468 469.568L137.932 470.54C138.964 469.628 139.708 468.44 140.08 467.096C140.392 465.884 140.428 463.352 140.428 461.924C140.428 461.432 140.512 460.892 140.512 460.844H138.748C138.82 461.144 138.868 461.456 138.868 461.948C138.868 463.388 138.856 465.668 138.508 466.688C138.184 467.72 137.536 468.824 136.468 469.568Z" fill="black"/>
<rect x="40" y="537" width="121" height="61" fill="#CDE7B7"/>
<path d="M93.244 561.824V563.744H94.72V561.824H93.244ZM88.852 562.868V565.448H90.28V564.128H97.648V565.448H99.136V562.868H88.852ZM89.92 565.076V566.24H98.164V565.076H89.92ZM88.756 568.88V570.128H99.304V568.88H88.756ZM90.112 566.96V568.124H97.924V566.96H90.112ZM94.708 569.132L93.412 569.396C94.336 571.532 95.872 572.672 98.62 573.116C98.8 572.732 99.172 572.156 99.472 571.856C96.976 571.592 95.416 570.716 94.708 569.132ZM93.208 564.392V567.716C93.208 569.324 92.68 570.968 88.528 571.916C88.84 572.216 89.26 572.768 89.416 573.08C93.784 571.904 94.66 569.84 94.66 567.728V564.392H93.208ZM105.352 562.496V563.864H111.22V562.496H105.352ZM108.4 566.228V571.376C108.4 571.556 108.328 571.604 108.1 571.616C107.884 571.616 107.092 571.616 106.408 571.58C106.6 572 106.792 572.624 106.84 573.044C107.92 573.044 108.676 573.032 109.192 572.816C109.72 572.588 109.876 572.18 109.876 571.412V566.228H108.4ZM104.836 565.82V567.188H111.532V565.82H104.836ZM102.148 567.236V573.092H103.588V566.048L103.408 565.976L102.148 567.236ZM103.504 564.428C102.712 565.784 101.404 567.176 100.18 568.04C100.468 568.328 100.96 568.976 101.164 569.276C102.448 568.22 103.924 566.54 104.872 564.944L103.504 564.428ZM103.048 561.812C102.46 562.652 101.308 563.732 100.312 564.38C100.552 564.668 100.924 565.232 101.116 565.556C102.256 564.764 103.552 563.516 104.428 562.376L103.048 561.812Z" fill="black"/>
<path d="M23.872 204.48V206.16C24.208 206.136 24.856 206.112 25.36 206.112H30.76V212.04C30.76 212.484 30.748 212.916 30.736 213.276H32.476C32.452 212.904 32.416 212.28 32.416 211.86V205.644C32.416 205.284 32.44 204.816 32.452 204.528C32.248 204.54 31.756 204.564 31.408 204.564H25.36C24.94 204.564 24.328 204.528 23.872 204.48ZM23.728 210.996V212.724C24.124 212.676 24.796 212.652 25.264 212.652H31.708V211.068H25.216C24.676 211.068 24.136 211.032 23.728 210.996ZM36.892 203.88L35.752 205.092C36.628 205.692 38.14 207 38.764 207.672L39.988 206.424C39.28 205.692 37.72 204.444 36.892 203.88ZM35.38 211.872L36.4 213.456C38.08 213.168 39.628 212.508 40.852 211.776C42.784 210.612 44.38 208.956 45.28 207.324L44.356 205.644C43.588 207.264 42.028 209.088 39.976 210.312C38.812 210.996 37.264 211.608 35.38 211.872ZM55.612 204.372C55.612 203.988 55.924 203.676 56.308 203.676C56.68 203.676 56.992 203.988 56.992 204.372C56.992 204.756 56.68 205.068 56.308 205.068C55.924 205.068 55.612 204.756 55.612 204.372ZM54.868 204.372C54.868 205.164 55.516 205.812 56.308 205.812C57.088 205.812 57.736 205.164 57.736 204.372C57.736 203.58 57.088 202.932 56.308 202.932C55.516 202.932 54.868 203.58 54.868 204.372ZM48.304 209.268C47.884 210.336 47.176 211.62 46.432 212.604L48.112 213.312C48.736 212.412 49.444 211.044 49.876 209.88C50.296 208.764 50.728 207.12 50.896 206.28C50.944 206.004 51.088 205.416 51.184 205.08L49.444 204.708C49.288 206.244 48.832 207.936 48.304 209.268ZM54.22 209.028C54.7 210.324 55.144 211.836 55.468 213.252L57.244 212.676C56.92 211.488 56.284 209.58 55.852 208.488C55.396 207.336 54.58 205.488 54.076 204.564L52.48 205.08C52.996 205.992 53.764 207.768 54.22 209.028ZM58.744 208.344L59.488 209.856C61.384 209.292 63.328 208.392 64.684 207.588C66.1 206.736 67.564 205.608 68.656 204.504L67.36 203.28C66.58 204.228 65.212 205.428 63.988 206.184C62.644 207.012 60.892 207.792 58.744 208.344ZM63.736 206.964V211.968C63.736 212.496 63.688 213.252 63.64 213.54H65.548C65.464 213.24 65.44 212.496 65.44 211.968V206.556L63.736 206.964ZM72.676 203.796V205.356C73.024 205.32 73.528 205.308 73.924 205.308C74.632 205.308 77.848 205.308 78.508 205.308C78.952 205.308 79.516 205.332 79.828 205.356V203.796C79.504 203.844 78.916 203.868 78.532 203.868C77.836 203.868 74.68 203.868 73.924 203.868C73.516 203.868 73 203.844 72.676 203.796ZM80.848 207.288L79.78 206.616C79.612 206.7 79.288 206.748 78.892 206.748C78.076 206.748 73.78 206.748 72.964 206.748C72.58 206.748 72.076 206.712 71.56 206.664V208.224C72.064 208.188 72.664 208.176 72.964 208.176C74.032 208.176 78.148 208.176 78.748 208.176C78.544 208.836 78.16 209.592 77.524 210.24C76.6 211.188 75.172 211.968 73.36 212.352L74.56 213.708C76.096 213.264 77.632 212.46 78.844 211.104C79.732 210.12 80.248 208.944 80.62 207.78C80.656 207.66 80.764 207.444 80.848 207.288Z" fill="black"/>
<path d="M98.9393 223.061C99.5251 223.646 100.475 223.646 101.061 223.061L110.607 213.515C111.192 212.929 111.192 211.979 110.607 211.393C110.021 210.808 109.071 210.808 108.485 211.393L100 219.879L91.5147 211.393C90.9289 210.808 89.9792 210.808 89.3934 211.393C88.8076 211.979 88.8076 212.929 89.3934 213.515L98.9393 223.061ZM98.5 196L98.5 222L101.5 222L101.5 196L98.5 196Z" fill="black"/>
<path d="M121.42 205.476H126.52V205.98H121.42V205.476ZM121.42 204.12H126.52V204.612H121.42V204.12ZM120.04 203.196V206.904H127.96V203.196H120.04ZM118.624 207.336V208.488H129.352V207.336H118.624ZM124.12 208.932V210.036H128.044V208.932H124.12ZM120.46 208.968V209.964H123.196V208.968H120.46ZM120.46 210.468V211.464H123.196V210.468H120.46ZM125.596 209.928L124.444 210.252C125.26 212.124 126.688 213.468 128.764 214.068C128.944 213.732 129.316 213.204 129.616 212.952C127.684 212.496 126.268 211.392 125.596 209.928ZM127.624 208.932V209.136C127.096 210.984 125.548 212.364 123.688 212.952C123.952 213.216 124.312 213.732 124.468 214.068C126.604 213.264 128.296 211.728 129.004 209.22L128.116 208.884L127.876 208.932H127.624ZM118.516 212.22L118.612 213.456C119.872 213.348 121.552 213.192 123.16 213.036V211.872C121.48 212.016 119.716 212.148 118.516 212.22ZM122.452 207.708V214.08H123.832V207.708H122.452ZM119.56 207.744V212.64H120.88V207.744H119.56ZM133.18 207.492H130.456V208.824H131.8V211.908H133.18V207.492ZM133.18 211.344H131.932C131.404 211.788 130.816 212.22 130.312 212.544L130.996 213.972C131.596 213.456 132.1 213 132.58 212.532C133.3 213.456 134.272 213.804 135.712 213.864C137.176 213.936 139.732 213.912 141.232 213.84C141.292 213.42 141.52 212.76 141.676 212.436C140.008 212.568 137.164 212.604 135.724 212.532C134.488 212.484 133.636 212.136 133.18 211.344ZM130.492 203.928C131.176 204.516 131.98 205.344 132.304 205.932L133.492 205.02C133.12 204.456 132.28 203.652 131.596 203.124L130.492 203.928ZM133.684 203.64V204.756H141.412V203.64H133.684ZM135.604 207.312V208.176H139.468V207.312H135.604ZM136.756 202.812V204.3H138.148V202.812H136.756ZM137.008 206.64V209.076H138.04V206.64H137.008ZM133.996 205.596V212.04H135.292V206.688H140.284V205.596H133.996ZM135.904 208.848V211.5H136.876V208.848H135.904ZM136.456 208.848V209.652H138.172V210.324H136.456V211.116H139.168V208.848H136.456ZM139.828 205.596V210.744C139.828 210.888 139.78 210.924 139.648 210.936C139.504 210.936 139.06 210.936 138.652 210.912C138.82 211.236 138.988 211.74 139.048 212.088C139.756 212.088 140.272 212.076 140.668 211.884C141.052 211.668 141.148 211.356 141.148 210.768V205.596H139.828ZM138.676 204.432C138.58 204.78 138.4 205.296 138.256 205.656L139.396 205.932C139.576 205.62 139.78 205.2 140.02 204.732L138.676 204.432ZM135.064 204.792C135.244 205.152 135.4 205.632 135.448 205.944L136.696 205.644C136.648 205.32 136.456 204.852 136.252 204.516L135.064 204.792ZM147.724 203.124V211.752C147.724 213.456 148.168 213.936 149.68 213.936C150.004 213.936 151.396 213.936 151.744 213.936C153.16 213.936 153.544 213.168 153.724 211.092C153.316 211.008 152.728 210.744 152.38 210.492C152.296 212.184 152.2 212.604 151.612 212.604C151.324 212.604 150.124 212.604 149.86 212.604C149.272 212.604 149.188 212.484 149.188 211.764V203.124H147.724ZM152.224 205.128C151.156 206.04 149.56 207.12 148.072 207.828C148.276 208.14 148.552 208.644 148.648 208.98C150.208 208.248 151.924 207.348 153.28 206.388L152.224 205.128ZM145.408 202.968C144.664 204.78 143.404 206.556 142.108 207.672C142.372 208.032 142.792 208.824 142.936 209.196C144.448 207.804 145.924 205.584 146.824 203.448L145.408 202.968ZM144.136 206.352V214.056H145.576V204.96L145.552 204.936L144.136 206.352Z" fill="black"/>
<path d="M98.9393 121.061C99.5251 121.646 100.475 121.646 101.061 121.061L110.607 111.515C111.192 110.929 111.192 109.979 110.607 109.393C110.021 108.808 109.071 108.808 108.485 109.393L100 117.879L91.5147 109.393C90.9289 108.808 89.9792 108.808 89.3934 109.393C88.8076 109.979 88.8076 110.929 89.3934 111.515L98.9393 121.061ZM98.5 94L98.5 120L101.5 120L101.5 94L98.5 94Z" fill="black"/>
<path d="M23.872 102.48V104.16C24.208 104.136 24.856 104.112 25.36 104.112H30.76V110.04C30.76 110.484 30.748 110.916 30.736 111.276H32.476C32.452 110.904 32.416 110.28 32.416 109.86V103.644C32.416 103.284 32.44 102.816 32.452 102.528C32.248 102.54 31.756 102.564 31.408 102.564H25.36C24.94 102.564 24.328 102.528 23.872 102.48ZM23.728 108.996V110.724C24.124 110.676 24.796 110.652 25.264 110.652H31.708V109.068H25.216C24.676 109.068 24.136 109.032 23.728 108.996ZM36.892 101.88L35.752 103.092C36.628 103.692 38.14 105 38.764 105.672L39.988 104.424C39.28 103.692 37.72 102.444 36.892 101.88ZM35.38 109.872L36.4 111.456C38.08 111.168 39.628 110.508 40.852 109.776C42.784 108.612 44.38 106.956 45.28 105.324L44.356 103.644C43.588 105.264 42.028 107.088 39.976 108.312C38.812 108.996 37.264 109.608 35.38 109.872ZM55.612 102.372C55.612 101.988 55.924 101.676 56.308 101.676C56.68 101.676 56.992 101.988 56.992 102.372C56.992 102.756 56.68 103.068 56.308 103.068C55.924 103.068 55.612 102.756 55.612 102.372ZM54.868 102.372C54.868 103.164 55.516 103.812 56.308 103.812C57.088 103.812 57.736 103.164 57.736 102.372C57.736 101.58 57.088 100.932 56.308 100.932C55.516 100.932 54.868 101.58 54.868 102.372ZM48.304 107.268C47.884 108.336 47.176 109.62 46.432 110.604L48.112 111.312C48.736 110.412 49.444 109.044 49.876 107.88C50.296 106.764 50.728 105.12 50.896 104.28C50.944 104.004 51.088 103.416 51.184 103.08L49.444 102.708C49.288 104.244 48.832 105.936 48.304 107.268ZM54.22 107.028C54.7 108.324 55.144 109.836 55.468 111.252L57.244 110.676C56.92 109.488 56.284 107.58 55.852 106.488C55.396 105.336 54.58 103.488 54.076 102.564L52.48 103.08C52.996 103.992 53.764 105.768 54.22 107.028ZM58.744 106.344L59.488 107.856C61.384 107.292 63.328 106.392 64.684 105.588C66.1 104.736 67.564 103.608 68.656 102.504L67.36 101.28C66.58 102.228 65.212 103.428 63.988 104.184C62.644 105.012 60.892 105.792 58.744 106.344ZM63.736 104.964V109.968C63.736 110.496 63.688 111.252 63.64 111.54H65.548C65.464 111.24 65.44 110.496 65.44 109.968V104.556L63.736 104.964ZM72.676 101.796V103.356C73.024 103.32 73.528 103.308 73.924 103.308C74.632 103.308 77.848 103.308 78.508 103.308C78.952 103.308 79.516 103.332 79.828 103.356V101.796C79.504 101.844 78.916 101.868 78.532 101.868C77.836 101.868 74.68 101.868 73.924 101.868C73.516 101.868 73 101.844 72.676 101.796ZM80.848 105.288L79.78 104.616C79.612 104.7 79.288 104.748 78.892 104.748C78.076 104.748 73.78 104.748 72.964 104.748C72.58 104.748 72.076 104.712 71.56 104.664V106.224C72.064 106.188 72.664 106.176 72.964 106.176C74.032 106.176 78.148 106.176 78.748 106.176C78.544 106.836 78.16 107.592 77.524 108.24C76.6 109.188 75.172 109.968 73.36 110.352L74.56 111.708C76.096 111.264 77.632 110.46 78.844 109.104C79.732 108.12 80.248 106.944 80.62 105.78C80.656 105.66 80.764 105.444 80.848 105.288Z" fill="black"/>
<path d="M119.872 102.48V104.16C120.208 104.136 120.856 104.112 121.36 104.112H126.76V110.04C126.76 110.484 126.748 110.916 126.736 111.276H128.476C128.452 110.904 128.416 110.28 128.416 109.86V103.644C128.416 103.284 128.44 102.816 128.452 102.528C128.248 102.54 127.756 102.564 127.408 102.564H121.36C120.94 102.564 120.328 102.528 119.872 102.48ZM119.728 108.996V110.724C120.124 110.676 120.796 110.652 121.264 110.652H127.708V109.068H121.216C120.676 109.068 120.136 109.032 119.728 108.996ZM131.092 105.444V107.34C131.548 107.304 132.352 107.268 133.024 107.268C134.44 107.268 138.388 107.268 139.48 107.268C139.984 107.268 140.596 107.328 140.884 107.34V105.444C140.56 105.468 140.032 105.528 139.468 105.528C138.4 105.528 134.44 105.528 133.024 105.528C132.4 105.528 131.536 105.48 131.092 105.444ZM150.172 102.072L149.164 102.504C149.608 103.116 149.872 103.596 150.232 104.352L151.264 103.896C151 103.344 150.508 102.576 150.172 102.072ZM151.744 101.424L150.748 101.892C151.192 102.48 151.48 102.924 151.864 103.692L152.872 103.188C152.608 102.648 152.104 101.904 151.744 101.424ZM145.396 110.028C145.396 110.508 145.348 111.228 145.276 111.696H147.148C147.1 111.216 147.04 110.376 147.04 110.028C147.04 109.14 147.04 104.46 147.04 103.128C147.04 102.636 147.1 102.108 147.148 101.688H145.264C145.348 102.108 145.396 102.696 145.396 103.128C145.396 104.148 145.396 109.116 145.396 110.028ZM146.68 104.784V106.512C147.988 106.944 150.016 107.712 151.372 108.42L152.056 106.764C150.868 106.176 148.288 105.228 146.68 104.784ZM155.704 103.896V104.952H159.028V103.896H155.704ZM155.704 105.864V106.884H159.028V105.864H155.704ZM155.704 107.868V108.936H159.028V107.868H155.704ZM160.9 106.512V107.724H165.424V106.512H160.9ZM156.292 101.928V103.008H158.188V101.928H156.292ZM160 101.424V102.6H164.452V101.424H160ZM160 108.804V110.052H165.652V108.804H160ZM162.244 105.432V112.044H163.612V105.432H162.244ZM157 104.448V108.264H157.96V104.448H157ZM164.068 101.424V101.592C164.02 103.332 163.948 103.98 163.816 104.136C163.732 104.244 163.636 104.268 163.48 104.268C163.324 104.268 163.012 104.256 162.628 104.22C162.808 104.532 162.928 105.012 162.952 105.372C163.432 105.396 163.9 105.384 164.164 105.348C164.476 105.3 164.704 105.204 164.896 104.952C165.16 104.64 165.268 103.812 165.328 101.88C165.34 101.724 165.352 101.424 165.352 101.424H164.068ZM160.66 105.516C160.492 106.476 160.168 107.46 159.7 108.096C159.988 108.228 160.516 108.492 160.756 108.66C161.224 107.952 161.62 106.848 161.836 105.744L160.66 105.516ZM156.004 100.8C155.68 102.228 155.044 103.632 154.228 104.52C154.516 104.712 155.032 105.144 155.248 105.372C156.112 104.352 156.856 102.732 157.288 101.076L156.004 100.8ZM155.176 103.896V107.076C155.176 108.432 155.104 110.22 154.288 111.468C154.564 111.588 155.08 111.912 155.296 112.104C156.172 110.748 156.328 108.612 156.328 107.076V103.896H155.176ZM158.644 103.896V110.676C158.644 110.82 158.584 110.868 158.44 110.868C158.296 110.88 157.816 110.88 157.348 110.856C157.516 111.18 157.708 111.732 157.756 112.068C158.488 112.068 158.98 112.044 159.352 111.84C159.712 111.624 159.82 111.264 159.82 110.7V103.896H158.644ZM161.44 101.82C161.32 103.116 161.068 104.136 159.628 104.724C159.916 104.94 160.24 105.408 160.384 105.708C162.172 104.916 162.58 103.572 162.724 101.82H161.44ZM157.852 101.928V102.144C157.708 102.708 157.408 103.596 157.144 104.148C157.396 104.28 157.792 104.52 158.02 104.688C158.392 104.088 158.86 103.14 159.124 102.384L158.308 101.868L158.128 101.928H157.852ZM172.444 104.868V106.224H177.664V104.868H172.444ZM171.712 101.652V105.144C171.712 106.932 171.58 109.356 170.236 111.12C170.584 111.288 171.136 111.756 171.34 112.068C172.9 110.076 173.116 107.088 173.116 105.168V102.348C173.332 102.312 173.416 102.24 173.428 102.132L171.712 101.652ZM176.068 100.932C175.084 101.412 173.488 101.856 172.012 102.144C172.192 102.444 172.408 102.984 172.48 103.32C174.064 103.068 175.9 102.648 177.28 102.06L176.068 100.932ZM174.676 105.288V112.068H176.104V105.288H174.676ZM166.528 103.284V104.652H171.016V103.284H166.528ZM168.184 100.812V112.08H169.564V100.812H168.184ZM168.112 104.208C167.8 105.744 167.044 107.616 166.216 108.66C166.432 109.02 166.768 109.608 166.9 110.004C167.824 108.768 168.58 106.44 168.964 104.508L168.112 104.208ZM169.456 105.264L168.796 105.912C169.204 106.512 170.02 107.844 170.344 108.564L171.148 107.424C170.908 107.076 169.768 105.6 169.456 105.264Z" fill="black"/>
<path d="M127.407 306.436L126.459 306.82C126.783 307.288 127.155 307.996 127.395 308.488L128.367 308.08C128.139 307.636 127.707 306.868 127.407 306.436ZM128.835 305.896L127.875 306.28C128.211 306.736 128.595 307.432 128.847 307.936L129.795 307.528C129.591 307.108 129.147 306.34 128.835 305.896ZM120.363 312.268C119.943 313.336 119.235 314.62 118.491 315.604L120.171 316.312C120.795 315.412 121.503 314.044 121.935 312.88C122.355 311.764 122.787 310.12 122.955 309.28C123.003 309.004 123.147 308.416 123.243 308.08L121.503 307.708C121.347 309.244 120.891 310.936 120.363 312.268ZM126.279 312.028C126.759 313.324 127.203 314.836 127.527 316.252L129.303 315.676C128.979 314.488 128.343 312.58 127.911 311.488C127.455 310.336 126.639 308.488 126.135 307.564L124.539 308.08C125.055 308.992 125.823 310.768 126.279 312.028ZM130.803 311.344L131.547 312.856C133.443 312.292 135.387 311.392 136.743 310.588C138.159 309.736 139.623 308.608 140.715 307.504L139.419 306.28C138.639 307.228 137.271 308.428 136.047 309.184C134.703 310.012 132.951 310.792 130.803 311.344ZM135.795 309.964V314.968C135.795 315.496 135.747 316.252 135.699 316.54H137.607C137.523 316.24 137.499 315.496 137.499 314.968V309.556L135.795 309.964ZM147.32 307.912C147.32 308.584 147.32 309.496 147.32 310.3C147.32 312.532 146.576 314.416 144.044 315.58L145.544 316.684C148.292 315.04 148.964 312.904 148.964 310.3C148.964 309.496 148.964 308.596 148.964 307.924C148.964 307.552 149 306.892 149.06 306.508H147.164C147.272 306.892 147.32 307.516 147.32 307.912ZM142.856 309.148V310.816C143.24 310.78 143.72 310.756 144.236 310.756C144.884 310.756 150.932 310.756 151.652 310.756C152.132 310.756 152.732 310.78 152.984 310.804V309.16C152.732 309.196 152.216 309.232 151.664 309.232C150.932 309.232 144.884 309.232 144.2 309.232C143.72 309.232 143.228 309.196 142.856 309.148ZM163.448 306.688H161.636C161.684 307.024 161.72 307.408 161.72 307.9C161.72 308.416 161.72 309.568 161.72 310.168C161.72 312.04 161.552 312.94 160.736 313.84C160.004 314.62 159.044 315.076 157.844 315.352L159.104 316.684C159.98 316.396 161.216 315.82 162.008 314.944C162.908 313.96 163.412 312.856 163.412 310.264C163.412 309.676 163.412 308.512 163.412 307.9C163.412 307.408 163.424 307.024 163.448 306.688ZM157.892 306.796H156.152C156.188 307.072 156.2 307.492 156.2 307.708C156.2 308.236 156.2 311.068 156.2 311.752C156.2 312.124 156.164 312.592 156.14 312.808H157.892C157.868 312.532 157.844 312.064 157.844 311.764C157.844 311.092 157.844 308.236 157.844 307.708C157.844 307.336 157.868 307.072 157.892 306.796ZM166.424 306.52V307.852H172.736V306.52H166.424ZM166.208 310.444V311.776H172.88V310.444H166.208ZM170.312 306.88V317.068H171.728V306.88H170.312ZM167.588 306.868V310.9C167.588 312.796 167.432 314.728 166.052 316.192C166.388 316.396 166.892 316.876 167.12 317.176C168.74 315.472 168.932 313.156 168.932 310.912V306.868H167.588ZM175.688 305.98C175.016 306.952 173.696 307.936 172.58 308.488C172.952 308.764 173.372 309.184 173.6 309.508C174.848 308.788 176.144 307.72 177.056 306.532L175.688 305.98ZM175.94 309.292C175.232 310.324 173.876 311.356 172.748 311.956C173.108 312.232 173.528 312.664 173.756 312.964C174.992 312.208 176.336 311.068 177.248 309.832L175.94 309.292ZM176.144 312.484C175.316 313.96 173.744 315.184 172.124 315.892C172.496 316.192 172.916 316.696 173.132 317.056C174.908 316.144 176.492 314.764 177.512 313.012L176.144 312.484ZM186.38 306.604C186.932 307 187.604 307.6 187.916 308.008L188.924 307.144C188.588 306.748 187.88 306.184 187.34 305.812L186.38 306.604ZM178.436 307.852V309.256H189.236V307.852H178.436ZM178.88 310.636V312.028H184.076V310.636H178.88ZM180.704 311.428V315.496H182.144V311.428H180.704ZM178.424 315.292L178.832 316.744C180.392 316.42 182.516 315.976 184.496 315.544L184.388 314.26C182.228 314.668 179.876 315.076 178.424 315.292ZM184.328 305.86C184.34 311.416 185.096 317.092 187.7 317.092C188.84 317.092 189.332 316.528 189.548 314.236C189.14 314.092 188.612 313.744 188.288 313.408C188.216 314.92 188.084 315.58 187.82 315.58C186.68 315.58 185.768 310.792 185.876 305.86H184.328ZM195.188 307.612L195.2 309.148C196.7 309.292 198.884 309.292 200.348 309.148V307.6C199.064 307.756 196.664 307.816 195.188 307.612ZM196.148 312.736L194.78 312.616C194.636 313.228 194.564 313.696 194.564 314.176C194.564 315.4 195.56 316.144 197.624 316.144C198.98 316.144 199.952 316.06 200.732 315.904L200.696 314.284C199.652 314.512 198.764 314.608 197.696 314.608C196.472 314.608 196.004 314.284 196.004 313.744C196.004 313.432 196.052 313.144 196.148 312.736ZM193.34 306.808L191.66 306.676C191.648 307.06 191.588 307.516 191.54 307.84C191.408 308.776 191.048 310.792 191.048 312.604C191.048 314.236 191.276 315.7 191.516 316.516L192.896 316.432C192.884 316.264 192.884 316.06 192.872 315.928C192.872 315.808 192.908 315.544 192.944 315.364C193.064 314.728 193.46 313.432 193.808 312.424L193.064 311.836C192.884 312.244 192.692 312.652 192.512 313.06C192.476 312.82 192.464 312.52 192.464 312.28C192.464 311.08 192.884 308.68 193.052 307.888C193.1 307.672 193.256 307.06 193.34 306.808ZM209.777 306.328H208.037C208.061 306.484 208.109 306.892 208.145 307.372C208.193 308.008 208.193 310.312 208.193 311.056L209.693 311.56C209.681 310.6 209.657 308.152 209.693 307.36C209.705 307.168 209.741 306.532 209.777 306.328ZM202.985 307.828L203.021 309.268C204.833 309.172 207.221 309.076 209.405 309.076C211.169 309.076 212.393 309.112 213.137 309.148L213.161 307.732C212.489 307.72 210.665 307.732 209.441 307.732C207.941 307.732 204.773 307.828 202.985 307.828ZM209.489 311.38L208.361 311.068C208.745 312.496 208.253 312.976 207.689 312.976C207.197 312.976 206.753 312.628 206.753 312.088C206.753 311.452 207.221 311.128 207.689 311.128C208.217 311.128 208.637 311.5 208.637 312.28C208.637 314.38 207.041 315.184 205.001 315.628L206.273 316.9C209.201 316.072 210.125 314.092 210.125 312.52C210.125 311.032 209.297 309.868 207.713 309.868C206.417 309.868 205.313 310.756 205.313 312.112C205.313 313.576 206.465 314.308 207.389 314.308C208.769 314.308 209.489 313.336 209.489 311.38ZM216.581 306.868L216.629 308.428C216.905 308.38 217.277 308.356 217.601 308.332C218.249 308.284 219.905 308.224 220.517 308.2C219.929 308.728 218.669 309.736 217.997 310.288C217.301 310.876 215.849 312.1 214.997 312.772L216.089 313.9C217.373 312.448 218.561 311.464 220.409 311.464C221.813 311.464 222.893 312.196 222.893 313.288C222.893 314.572 221.861 315.34 219.833 315.34C219.101 315.34 218.609 315.04 218.609 314.596C218.609 314.284 218.909 314.008 219.353 314.008C220.061 314.008 220.517 314.608 220.541 315.472L221.945 315.292C221.909 313.972 220.997 312.868 219.353 312.868C218.081 312.868 217.193 313.756 217.193 314.728C217.193 315.94 218.453 316.696 220.121 316.696C223.025 316.696 224.465 315.196 224.465 313.3C224.465 311.56 222.917 310.288 220.877 310.288C220.505 310.288 220.145 310.312 219.737 310.42C220.505 309.82 221.765 308.764 222.413 308.308C222.677 308.104 222.965 307.936 223.241 307.756L222.473 306.676C222.329 306.724 222.053 306.772 221.549 306.808C220.865 306.868 218.309 306.928 217.661 306.928C217.325 306.928 216.917 306.904 216.581 306.868Z" fill="black"/>
<path d="M128.116 512.18L126.328 511.568C126.268 511.868 126.148 512.36 126.04 512.672C125.62 513.872 125.08 515.108 124.132 516.356C122.86 518.012 121.36 519.344 119.176 520.388L120.508 521.612C122.836 520.328 124.312 518.78 125.428 517.34C126.424 516.044 127.156 514.46 127.612 513.272C127.72 512.984 127.948 512.456 128.116 512.18ZM121.516 513.344L120.484 514.568C121.996 515.492 123.4 516.572 124.264 517.292C125.536 518.348 126.592 519.332 127.636 520.556L128.872 519.176C127.9 518.144 126.64 517.016 125.356 516.02C124.348 515.228 122.704 514.088 121.516 513.344ZM132.052 512.192V513.68C132.4 513.668 132.784 513.656 133.216 513.656C133.804 513.656 137.932 513.656 139 513.656C139.432 513.656 139.756 513.668 140.068 513.68V512.192C139.792 512.216 139.396 512.24 139 512.24C137.932 512.24 134.248 512.24 133.216 512.24C132.784 512.24 132.4 512.216 132.052 512.192ZM136.18 516.416C136.18 516.296 136.18 513.668 136.18 513.296H134.536C134.536 513.692 134.536 515.9 134.536 516.356C134.536 517.064 134.536 518.672 134.536 519.464C134.536 520.676 135.076 521.42 137.272 521.42C138.388 521.42 139.756 521.384 140.536 521.336L140.644 519.704C139.672 519.812 138.616 519.872 137.548 519.872C136.576 519.872 136.18 519.632 136.18 518.984C136.18 518.564 136.18 516.968 136.18 516.416ZM131.26 515.624V517.196C131.62 517.172 132.232 517.148 132.568 517.148C133.66 517.148 138.976 517.148 139.84 517.148C140.104 517.148 140.644 517.136 140.968 517.184V515.636C140.656 515.66 140.044 515.696 139.792 515.696C139 515.696 133.672 515.696 132.568 515.696C132.208 515.696 131.596 515.648 131.26 515.624ZM151.624 511.688H149.812C149.86 512.024 149.896 512.408 149.896 512.9C149.896 513.416 149.896 514.568 149.896 515.168C149.896 517.04 149.728 517.94 148.912 518.84C148.18 519.62 147.22 520.076 146.02 520.352L147.28 521.684C148.156 521.396 149.392 520.82 150.184 519.944C151.084 518.96 151.588 517.856 151.588 515.264C151.588 514.676 151.588 513.512 151.588 512.9C151.588 512.408 151.6 512.024 151.624 511.688ZM146.068 511.796H144.328C144.364 512.072 144.376 512.492 144.376 512.708C144.376 513.236 144.376 516.068 144.376 516.752C144.376 517.124 144.34 517.592 144.316 517.808H146.068C146.044 517.532 146.02 517.064 146.02 516.764C146.02 516.092 146.02 513.236 146.02 512.708C146.02 512.336 146.044 512.072 146.068 511.796ZM154.444 517.436L155.896 518.924C156.112 518.612 156.388 518.18 156.664 517.796C157.18 517.112 158.02 515.924 158.5 515.312C158.848 514.88 159.076 514.82 159.508 515.276C160.06 515.912 160.96 517.064 161.704 517.94C162.472 518.84 163.492 519.992 164.344 520.808L165.592 519.368C164.452 518.348 163.42 517.28 162.652 516.44C161.944 515.66 160.996 514.424 160.168 513.632C159.292 512.78 158.524 512.864 157.684 513.824C156.928 514.688 156.016 515.924 155.452 516.5C155.092 516.872 154.804 517.148 154.444 517.436ZM170.68 515.348V517.652H171.952V516.464H176.128V517.652H177.46V515.348H170.68ZM174.412 517.052V520.364C174.412 521.588 174.64 521.996 175.708 521.996C175.9 521.996 176.308 521.996 176.512 521.996C177.364 521.996 177.7 521.516 177.808 519.74C177.46 519.656 176.884 519.428 176.632 519.212C176.608 520.544 176.56 520.736 176.368 520.736C176.284 520.736 176.008 520.736 175.936 520.736C175.756 520.736 175.744 520.7 175.744 520.352V517.052H174.412ZM172.276 517.04C172.216 519.08 172.024 520.256 170.14 520.952C170.44 521.228 170.824 521.768 170.968 522.116C173.2 521.192 173.536 519.56 173.62 517.04H172.276ZM170.812 511.712V512.876H177.376V511.712H170.812ZM171.208 513.596V514.76H177.016V513.596H171.208ZM173.296 510.8V514.196H174.724V510.8H173.296ZM166.888 514.496V515.576H170.236V514.496H166.888ZM166.96 511.184V512.276H170.2V511.184H166.96ZM166.888 516.128V517.22H170.236V516.128H166.888ZM166.348 512.804V513.944H170.596V512.804H166.348ZM167.548 517.796V518.924H169.084V520.292H167.548V521.42H170.26V517.796H167.548ZM166.852 517.796V521.924H168.028V517.796H166.852ZM180.556 511.928L180.616 513.464C180.928 513.428 181.348 513.38 181.6 513.368C182.14 513.332 183.184 513.296 183.664 513.284C183.304 514.028 182.812 515.204 182.392 516.152C181.96 517.1 181.528 518.204 181.132 518.792C180.904 519.092 180.748 519.2 180.508 519.2C180.22 519.2 179.992 518.996 179.992 518.6C179.992 517.724 181 516.776 182.752 516.776C185.224 516.776 187.336 518.144 188.812 519.452L189.508 517.784C188.248 516.92 185.8 515.432 183.004 515.432C180.436 515.432 178.6 516.908 178.6 518.828C178.6 520.052 179.392 520.772 180.436 520.772C181.264 520.772 181.828 520.448 182.308 519.716C182.8 518.96 183.376 517.532 183.856 516.428C184.396 515.18 185.044 513.632 185.452 512.948C185.548 512.792 185.692 512.636 185.848 512.456L184.9 511.7C184.684 511.784 184.372 511.856 184.072 511.88C183.52 511.928 182.248 511.976 181.552 511.976C181.3 511.976 180.88 511.952 180.556 511.928ZM188.452 514.76L186.88 514.58C186.928 514.952 186.916 515.432 186.892 515.9C186.784 517.304 186.424 519.548 183.46 520.82L184.744 521.864C187.612 520.376 188.284 518.168 188.452 514.76ZM194.848 511.316V512.672H197.38V511.316H194.848ZM196.66 511.316V511.952H196.888C197.104 515.444 197.896 518.468 200.452 519.992C200.716 519.656 201.244 519.128 201.58 518.9C199.072 517.628 198.352 514.736 198.172 511.316H196.66ZM196.612 513.812C196.228 516.128 195.304 517.916 193.624 518.924C193.948 519.164 194.512 519.728 194.728 520.004C196.504 518.768 197.572 516.728 198.1 514.028L196.612 513.812ZM193.324 515.492H190.516V516.824H191.92V519.908H193.324V515.492ZM193.324 519.284H192.004C191.452 519.716 190.804 520.136 190.264 520.472L190.972 521.972C191.62 521.444 192.16 520.988 192.688 520.52C193.468 521.456 194.464 521.804 195.94 521.864C197.38 521.924 199.804 521.9 201.256 521.828C201.316 521.396 201.556 520.7 201.712 520.364C200.092 520.496 197.368 520.532 195.964 520.472C194.716 520.424 193.804 520.076 193.324 519.284ZM190.54 511.952C191.248 512.492 192.112 513.296 192.472 513.86L193.624 512.912C193.204 512.348 192.328 511.592 191.608 511.088L190.54 511.952ZM206.788 511.304H205.108C205.204 511.64 205.24 512.048 205.24 512.804C205.24 513.452 205.24 515.048 205.24 515.864L206.68 516.428C206.68 515.624 206.668 513.38 206.68 512.804C206.68 512.084 206.728 511.64 206.788 511.304ZM210.82 512.408L209.812 513.404C210.508 513.896 211.636 515 212.296 515.804L213.376 514.7C212.836 514.052 211.576 512.876 210.82 512.408ZM202.936 512.744L203.02 514.148C203.812 514.232 204.472 514.256 204.976 514.256C205.852 514.256 207.424 514.136 208.816 513.824V512.372C207.448 512.756 206.068 512.912 204.868 512.912C204.316 512.912 203.596 512.84 202.936 512.744ZM206.416 518.324L204.94 518.756C204.94 519.08 204.916 519.536 204.916 519.956C204.916 520.796 205.036 521.684 207.844 521.684C208.66 521.684 209.908 521.588 210.448 521.42C211.828 521 212.164 520.316 212.224 519.236C212.248 518.732 212.236 518.456 212.236 517.82L210.58 517.328C210.652 517.88 210.664 518.336 210.664 518.804C210.664 519.416 210.412 519.824 209.788 520.016C209.332 520.148 208.552 520.232 207.952 520.232C206.524 520.232 206.392 519.968 206.392 519.452C206.392 519.08 206.404 518.576 206.416 518.324ZM207.028 516.944C207.028 515.84 206.416 515.06 205.18 515.06C203.884 515.06 202.96 516.128 202.96 517.556C202.96 519.092 203.86 519.704 204.736 519.704C206.38 519.704 207.028 518.348 207.028 516.944ZM204.88 518.276C204.544 518.276 204.22 517.964 204.22 517.436C204.22 516.74 204.616 516.26 205.096 516.26C205.432 516.26 205.648 516.536 205.648 517.004C205.648 517.688 205.444 518.276 204.88 518.276Z" fill="black"/>
<path d="M98.9393 326.061C99.5251 326.646 100.475 326.646 101.061 326.061L110.607 316.515C111.192 315.929 111.192 314.979 110.607 314.393C110.021 313.808 109.071 313.808 108.485 314.393L100 322.879L91.5147 314.393C90.9289 313.808 89.9792 313.808 89.3934 314.393C88.8076 314.979 88.8076 315.929 89.3934 316.515L98.9393 326.061ZM98.5 299L98.5 325L101.5 325L101.5 299L98.5 299Z" fill="black"/>
<path d="M33.7468 307.888L32.7988 307C32.5708 307.06 31.9108 307.108 31.5748 307.108C30.9508 307.108 25.8628 307.108 25.1068 307.108C24.6148 307.108 24.1108 307.048 23.6428 306.976V308.656C24.2068 308.596 24.6148 308.572 25.1068 308.572C25.8628 308.572 30.6388 308.572 31.3708 308.572C31.0588 309.16 30.1228 310.216 29.1508 310.804L30.3988 311.8C31.5868 310.96 32.7268 309.436 33.2908 308.5C33.3988 308.332 33.6268 308.044 33.7468 307.888ZM28.8628 309.496H27.1228C27.1828 309.892 27.1948 310.204 27.1948 310.588C27.1948 312.556 26.9068 313.816 25.3948 314.872C24.9508 315.208 24.5188 315.412 24.1228 315.544L25.5268 316.684C28.7908 314.92 28.8628 312.472 28.8628 309.496ZM37.4485 314.404C37.4485 315.832 37.8445 316.48 40.5685 316.48C41.8645 316.48 43.3045 316.372 44.2885 316.228L44.3485 314.596C43.1605 314.836 41.8165 314.992 40.5565 314.992C39.2485 314.992 39.0325 314.74 39.0325 313.984C39.0325 312.652 39.0325 309.352 39.0325 307.912C39.0325 307.504 39.0805 306.892 39.1405 306.532H37.3525C37.4125 306.892 37.4485 307.504 37.4485 307.912C37.4485 309.364 37.4485 313.42 37.4485 314.404ZM44.9965 309.136L43.8445 308.236C43.6285 308.356 43.3285 308.44 42.9925 308.524C41.9005 308.788 36.2605 309.892 34.6285 310.084L34.9165 311.656C36.4405 311.32 41.9845 310.216 42.7165 310.072C42.3805 310.696 41.6005 311.8 40.8085 312.508L42.1285 313.288C42.9925 312.436 44.0845 310.792 44.6125 309.784C44.7205 309.58 44.8885 309.304 44.9965 309.136ZM48.9565 306.88L47.8165 308.092C48.6925 308.692 50.2045 310 50.8285 310.672L52.0525 309.424C51.3445 308.692 49.7845 307.444 48.9565 306.88ZM47.4445 314.872L48.4645 316.456C50.1445 316.168 51.6925 315.508 52.9165 314.776C54.8485 313.612 56.4445 311.956 57.3445 310.324L56.4205 308.644C55.6525 310.264 54.0925 312.088 52.0405 313.312C50.8765 313.996 49.3285 314.608 47.4445 314.872ZM66.8092 305.896L65.8132 306.304C66.1252 306.784 66.4852 307.396 66.7252 307.9L67.7212 307.48C67.5052 307.036 67.1092 306.352 66.8092 305.896ZM68.4772 305.584L67.4812 305.992C67.8172 306.436 68.1892 307.108 68.4412 307.6L69.4372 307.18C69.2092 306.748 68.7892 306.028 68.4772 305.584ZM68.0452 308.152L66.8572 307.396C66.5452 307.48 66.1612 307.492 65.9212 307.492C65.2492 307.492 61.2652 307.492 60.3652 307.492C59.9692 307.492 59.2972 307.432 58.9372 307.384V309.088C59.2492 309.064 59.8252 309.028 60.3652 309.028C61.2652 309.028 65.2372 309.028 65.9572 309.028C65.8012 310.06 65.3452 311.428 64.5412 312.424C63.5812 313.636 62.2252 314.68 59.8492 315.232L61.1572 316.672C63.2932 315.988 64.8892 314.8 65.9812 313.36C66.9772 312.028 67.5052 310.156 67.7812 308.98C67.8412 308.728 67.9372 308.38 68.0452 308.152ZM72.3772 306.796V308.356C72.7252 308.32 73.2292 308.308 73.6252 308.308C74.3332 308.308 77.5492 308.308 78.2092 308.308C78.6532 308.308 79.2172 308.332 79.5292 308.356V306.796C79.2052 306.844 78.6172 306.868 78.2332 306.868C77.5372 306.868 74.3812 306.868 73.6252 306.868C73.2172 306.868 72.7012 306.844 72.3772 306.796ZM80.5492 310.288L79.4812 309.616C79.3132 309.7 78.9892 309.748 78.5932 309.748C77.7772 309.748 73.4812 309.748 72.6652 309.748C72.2812 309.748 71.7772 309.712 71.2612 309.664V311.224C71.7652 311.188 72.3652 311.176 72.6652 311.176C73.7332 311.176 77.8492 311.176 78.4492 311.176C78.2452 311.836 77.8612 312.592 77.2252 313.24C76.3012 314.188 74.8732 314.968 73.0612 315.352L74.2612 316.708C75.7972 316.264 77.3332 315.46 78.5452 314.104C79.4332 313.12 79.9492 311.944 80.3212 310.78C80.3572 310.66 80.4652 310.444 80.5492 310.288Z" fill="black"/>
<path d="M98.9393 429.061C99.5251 429.646 100.475 429.646 101.061 429.061L110.607 419.515C111.192 418.929 111.192 417.979 110.607 417.393C110.021 416.808 109.071 416.808 108.485 417.393L100 425.879L91.5147 417.393C90.9289 416.808 89.9792 416.808 89.3934 417.393C88.8076 417.979 88.8076 418.929 89.3934 419.515L98.9393 429.061ZM98.5 402L98.5 428L101.5 428L101.5 402L98.5 402Z" fill="black"/>
<path d="M164.5 428C164.5 428.828 165.172 429.5 166 429.5H179.5C180.328 429.5 181 428.828 181 428C181 427.172 180.328 426.5 179.5 426.5H167.5V414.5C167.5 413.672 166.828 413 166 413C165.172 413 164.5 413.672 164.5 414.5V428ZM187.939 403.939L164.939 426.939L167.061 429.061L190.061 406.061L187.939 403.939Z" fill="black"/>
<path d="M49.624 409.688H47.812C47.86 410.024 47.896 410.408 47.896 410.9C47.896 411.416 47.896 412.568 47.896 413.168C47.896 415.04 47.728 415.94 46.912 416.84C46.18 417.62 45.22 418.076 44.02 418.352L45.28 419.684C46.156 419.396 47.392 418.82 48.184 417.944C49.084 416.96 49.588 415.856 49.588 413.264C49.588 412.676 49.588 411.512 49.588 410.9C49.588 410.408 49.6 410.024 49.624 409.688ZM44.068 409.796H42.328C42.364 410.072 42.376 410.492 42.376 410.708C42.376 411.236 42.376 414.068 42.376 414.752C42.376 415.124 42.34 415.592 42.316 415.808H44.068C44.044 415.532 44.02 415.064 44.02 414.764C44.02 414.092 44.02 411.236 44.02 410.708C44.02 410.336 44.044 410.072 44.068 409.796ZM54.892 409.88L53.752 411.092C54.628 411.692 56.14 413 56.764 413.672L57.988 412.424C57.28 411.692 55.72 410.444 54.892 409.88ZM53.38 417.872L54.4 419.456C56.08 419.168 57.628 418.508 58.852 417.776C60.784 416.612 62.38 414.956 63.28 413.324L62.356 411.644C61.588 413.264 60.028 415.088 57.976 416.312C56.812 416.996 55.264 417.608 53.38 417.872ZM70.384 409.376H68.608C68.656 409.664 68.704 410.216 68.704 410.48C68.692 413.648 68.14 415.688 66.568 417.248C66.088 417.74 65.488 418.136 64.984 418.412L66.388 419.54C69.04 417.656 70.168 415.22 70.3 410.456C70.312 410.168 70.348 409.664 70.384 409.376ZM74.452 411.956L73.42 411.44C73.132 411.5 72.82 411.524 72.508 411.524H66.952C66.496 411.524 65.884 411.5 65.38 411.44V413.024C65.884 412.976 66.556 412.964 66.964 412.964H72.82C72.82 414.26 72.652 416.66 72.304 417.416C72.184 417.716 72.016 417.848 71.632 417.848C71.152 417.848 70.54 417.776 69.94 417.68L70.132 419.276C70.72 419.324 71.428 419.384 72.124 419.384C72.94 419.384 73.408 419.06 73.66 418.46C74.176 417.236 74.332 413.888 74.38 412.58C74.38 412.448 74.416 412.148 74.452 411.956Z" fill="black"/>
<path d="M98.9393 531.061C99.5251 531.646 100.475 531.646 101.061 531.061L110.607 521.515C111.192 520.929 111.192 519.979 110.607 519.393C110.021 518.808 109.071 518.808 108.485 519.393L100 527.879L91.5147 519.393C90.9289 518.808 89.9792 518.808 89.3934 519.393C88.8076 519.979 88.8076 520.929 89.3934 521.515L98.9393 531.061ZM98.5 504L98.5 530L101.5 530L101.5 504L98.5 504Z" fill="black"/>
<path d="M41.512 512.492C41.524 512.84 41.524 513.32 41.524 513.668C41.524 514.364 41.524 518.804 41.524 519.524C41.524 520.1 41.5 521.156 41.5 521.216H43.144C43.144 521.156 43.132 520.148 43.132 519.572C43.132 518.864 43.132 514.052 43.132 514.052H48.94C48.94 514.052 48.94 518.876 48.94 519.572C48.94 520.232 48.904 521.168 48.904 521.216H50.572C50.56 521.168 50.548 520.016 50.548 519.548C50.548 518.816 50.548 514.4 50.548 513.668C50.548 513.296 50.548 512.864 50.572 512.504C50.128 512.516 49.684 512.516 49.384 512.516C48.52 512.516 43.648 512.516 42.772 512.516C42.448 512.516 41.992 512.504 41.512 512.492ZM49.528 519.032H42.316V520.556H49.528V519.032ZM53.092 515.444V517.34C53.548 517.304 54.352 517.268 55.024 517.268C56.44 517.268 60.388 517.268 61.48 517.268C61.984 517.268 62.596 517.328 62.884 517.34V515.444C62.56 515.468 62.032 515.528 61.468 515.528C60.4 515.528 56.44 515.528 55.024 515.528C54.4 515.528 53.536 515.48 53.092 515.444ZM73.348 511.148L72.388 511.544C72.712 512 73.084 512.72 73.336 513.2L74.296 512.792C74.068 512.348 73.648 511.592 73.348 511.148ZM74.764 510.608L73.816 510.992C74.14 511.448 74.524 512.144 74.776 512.648L75.736 512.24C75.52 511.82 75.076 511.052 74.764 510.608ZM68.848 515.672L67.792 516.764C69.196 517.652 71.464 519.32 72.52 520.304L73.66 518.948C72.556 518.06 70.324 516.524 68.848 515.672ZM74.5 513.632L73.276 512.876C73.012 512.96 72.604 513.02 72.232 513.02H68.824L68.26 514.376H72.328C72.1 515.312 71.356 516.68 70.54 517.64C69.52 518.84 68.08 520.1 65.572 520.88L66.964 522.08C69.256 521.216 70.804 519.872 71.932 518.468C73 517.136 73.732 515.6 74.104 514.496C74.212 514.196 74.368 513.86 74.5 513.632ZM70.528 511.784L68.8 511.244C68.692 511.652 68.428 512.204 68.248 512.504C67.648 513.536 66.532 515.192 64.432 516.488L65.728 517.484C67.444 516.296 68.98 514.46 69.796 513.008C69.94 512.756 70.24 512.204 70.528 511.784Z" fill="black"/>
</svg>
